<?xml version="1.0" encoding="iso-8859-1"?>
<!-- Generator: Adobe Illustrator 18.1.1, SVG Export Plug-In . SVG Version: 6.00 Build 0)  -->
<svg version="1.1" id="Capa_1" xmlns="http://www.w3.org/2000/svg" xmlns:xlink="http://www.w3.org/1999/xlink" x="0px" y="0px"
	 viewBox="0 0 25.246 25.246" style="enable-background:new 0 0 25.246 25.246;" xml:space="preserve">
<g>
	<path style="fill:#010002;" d="M14.525,10.514c0,0-0.947-0.179-1.591-0.171c-1.068,0.011-1.658,0.171-1.658,0.171l2.599,5.283
		l11.371-3.447c-2.213-2.771-6.52-4.894-11.412-5.122c-1.897-0.09-3.715,0.097-5.375,0.502L7.476,5.706L3.697,6.098l1.438,2.848
		c-3.011,1.531-4.995,3.948-5.127,6.747c-0.064,1.396,0.265,2.625,1.037,3.847l11.444-3.523L9.47,9.809
		c1.449-0.406,3.093-0.545,4.803-0.339c2.024,0.242,3.84,0.928,5.274,1.892l-3.638,1.263L14.525,10.514z M4.073,15.804
		c-0.011-0.257-0.003-0.516,0.028-0.771c0.176-1.461,0.995-2.731,2.241-3.699l1.644,3.252L4.073,15.804z"/>
</g>
<g>
</g>
<g>
</g>
<g>
</g>
<g>
</g>
<g>
</g>
<g>
</g>
<g>
</g>
<g>
</g>
<g>
</g>
<g>
</g>
<g>
</g>
<g>
</g>
<g>
</g>
<g>
</g>
<g>
</g>
</svg>
