<?xml version="1.0" encoding="utf-8"?>
<!-- Generator: Adobe Illustrator 27.1.1, SVG Export Plug-In . SVG Version: 6.00 Build 0)  -->
<svg version="1.1" id="Layer_1" xmlns="http://www.w3.org/2000/svg" xmlns:xlink="http://www.w3.org/1999/xlink" x="0px" y="0px"
	 viewBox="0 0 86.5 86.5" style="enable-background:new 0 0 86.5 86.5;" xml:space="preserve">
<style type="text/css">
	.st0{fill-rule:evenodd;clip-rule:evenodd;fill:#006766;}
	.st1{fill:#FFFFFF;}
	.st2{fill-rule:evenodd;clip-rule:evenodd;fill:#65FF2F;}
	.st3{fill-rule:evenodd;clip-rule:evenodd;fill:#68CCFE;}
	.st4{fill-rule:evenodd;clip-rule:evenodd;fill:#05666F;}
	.st5{fill-rule:evenodd;clip-rule:evenodd;}
</style>
<rect class="st0" width="86.5" height="86.5"/>
<path class="st1" d="M33.4,28.8L33.4,28.8L33.4,28.8c4,0,7.6,1.6,10.2,4.2c2.6,2.6,4.2,6.2,4.2,10.2h0v0v0h0c0,4-1.6,7.6-4.2,10.2
	c-2.6,2.6-6.2,4.2-10.2,4.2v0h0h0v0c-4,0-7.6-1.6-10.2-4.2c-2.6-2.6-4.2-6.2-4.2-10.2h0v0v0h0c0-4,1.6-7.6,4.2-10.2
	C25.8,30.5,29.4,28.8,33.4,28.8L33.4,28.8L33.4,28.8L33.4,28.8z"/>
<path class="st1" d="M19.4,32.6L19.4,32.6L19.4,32.6c3,0,5.6,1.2,7.6,3.1c1.9,1.9,3.1,4.6,3.1,7.6h0v0v0h0c0,3-1.2,5.6-3.1,7.6
	c-1.9,1.9-4.6,3.1-7.6,3.1v0h0h0v0c-3,0-5.6-1.2-7.6-3.1c-1.9-1.9-3.1-4.6-3.1-7.6h0v0v0h0c0-3,1.2-5.6,3.1-7.6
	C13.7,33.8,16.4,32.6,19.4,32.6L19.4,32.6L19.4,32.6L19.4,32.6z"/>
<circle class="st2" cx="33.4" cy="43.3" r="12.8"/>
<circle class="st3" cx="19.4" cy="43.3" r="9.1"/>
<path class="st4" d="M23.4,51.4c-1.8-2.2-2.9-5-2.9-8.1c0-3.1,1.1-5.9,2.9-8.1c3,1.5,5,4.6,5,8.1S26.4,49.9,23.4,51.4L23.4,51.4z"/>
<path class="st1" d="M34.2,50.3L34.2,50.3c-0.4,0.1-0.6,0.1-0.9,0.1l0,0h0l-0.1,0l0,0l-0.1,0h0c-0.2,0-0.4,0-0.6,0
	c-0.4,0-0.8,0-1.1-0.1c-0.4-0.1-0.7-0.1-1-0.3l0,0c-0.3-0.1-0.6-0.3-0.9-0.5c-0.3-0.2-0.5-0.5-0.6-0.8l0,0l0,0l0,0
	c0-0.1,0-0.1-0.1-0.2l0,0c0-0.1,0-0.1-0.1-0.2v0c-0.1-0.3-0.1-0.6-0.1-1h0c0-0.2,0-0.5,0.1-0.8l0,0c0-0.3,0.1-0.6,0.2-1l0.3-1.2
	l0.4-2h-1.3l0.3-1.3l0.4-2.1l0.2-0.9H30h0.4l0.4-1.9l0.2-0.9h0.9h3.4h1.4l-0.3,1.3l-0.3,1.4h0.3h1.4l0,0h2.4h0.7c0,0,0.1,0,0.1,0v0
	c0.7-0.3,1.4-0.4,2.2-0.4l0.4-2.1l0.2-0.9h0.9h3.4h1.4L49.2,36l-0.4,2.1l0,0h3h1.2c0.1,0,0.3-0.1,0.4-0.1c0.3-0.1,0.7-0.1,1.1-0.1h0
	v0c0.3,0,0.6,0,0.8,0.1h0l0.1,0l0,0c0.2,0,0.5,0.1,0.7,0.2l0,0l0,0l0,0c0.1,0,0.1,0.1,0.2,0.1h0c0.1,0,0.1,0.1,0.2,0.1
	c0.4,0.2,0.7,0.4,0.9,0.7l0,0l0,0l0,0c0,0.1,0.1,0.1,0.1,0.2c0.1,0.1,0.1,0.2,0.1,0.3l0,0c0.1-0.1,0.2-0.2,0.3-0.3l0,0l0,0l0,0l0,0
	c0.2-0.1,0.3-0.3,0.5-0.4c0.2-0.1,0.4-0.2,0.5-0.3h0c0.9-0.5,2-0.7,3.4-0.7h0v0c0.9,0,1.7,0.1,2.4,0.4c0.1,0,0.2,0.1,0.3,0.1
	c0.6,0.3,1.1,0.7,1.4,1.2l0,0l0,0c0,0.1,0.1,0.1,0.1,0.2c0.1-0.1,0.2-0.3,0.3-0.4l0,0v0c0.1-0.1,0.2-0.3,0.4-0.4
	c0.1-0.1,0.3-0.2,0.4-0.3c0.7-0.5,1.6-0.7,2.7-0.7h0v0c0.3,0,0.6,0,0.9,0.1l0,0l0.1,0c0.1,0,0.2,0.1,0.3,0.1l0.5-2.4l0.2-0.9h0.9
	h3.3h1.4l-0.3,1.3l-2.7,13.3l-0.2,0.9h-0.9h-3h-1.1c-0.2,0.1-0.4,0.1-0.6,0.2c-0.3,0.1-0.7,0.1-1.1,0.1v0h0v0c-0.3,0-0.6,0-0.8-0.1
	l0,0l-0.1,0l0,0c-0.2,0-0.5-0.1-0.7-0.2l0,0c-0.3-0.1-0.5-0.2-0.7-0.4c-0.2-0.2-0.4-0.3-0.6-0.5l0-0.1l0,0l0,0
	c-0.1-0.1-0.1-0.2-0.1-0.2c0-0.1-0.1-0.1-0.1-0.2c-0.1,0.1-0.2,0.2-0.3,0.3l0,0c-0.5,0.5-1.2,0.9-1.9,1.1c-0.7,0.2-1.5,0.3-2.5,0.3
	c-0.9,0-1.7-0.1-2.4-0.4c-0.8-0.3-1.3-0.7-1.7-1.3c0-0.1-0.1-0.1-0.1-0.2c-0.1,0.2-0.2,0.3-0.3,0.5h0c-0.4,0.5-0.9,0.9-1.5,1.1
	c-0.6,0.2-1.2,0.3-1.9,0.3h0v0c-0.3,0-0.7,0-0.9-0.1c0,0-0.1,0-0.1,0c-0.1,0-0.2-0.1-0.3-0.1l-0.5,2.4l-0.2,0.9h-0.9h-3.3h-1.4
	l0.3-1.3l0.4-2h0h-3.4h-1.4l0.3-1.3l1.3-6.1c-0.5,0-0.9,0-1.1,0.2c-0.2,0.1-0.3,0.5-0.4,1l-1.2,5.4l-0.2,0.9h-0.9h-3.4H34.2
	L34.2,50.3z"/>
<path class="st5" d="M34.3,49.2c-0.4,0.1-0.8,0.1-1.1,0.1c-0.3,0-0.6,0-0.8,0c-0.7,0-1.2-0.1-1.7-0.3c-0.4-0.2-0.7-0.4-0.9-0.8
	c-0.1-0.2-0.1-0.5-0.1-0.9c0-0.3,0.1-0.9,0.2-1.6l0.3-1.2l0.7-3.4h-1.3l0.4-2.1h1.3l0.6-2.8h3.4l-0.6,2.8h1.6L36,41.3h-1.6l-0.9,4.1
	c-0.2,0.9-0.2,1.4-0.1,1.6c0.1,0.2,0.4,0.3,0.8,0.3c0.1,0,0.2,0,0.4,0c0,0,0.1,0,0.1,0L34.3,49.2L34.3,49.2z M71.2,41.4
	c-0.4,0-0.7,0.2-1,0.5c-0.2,0.4-0.5,1.2-0.7,2.4c-0.3,1.3-0.4,2.1-0.3,2.4c0.1,0.3,0.3,0.5,0.7,0.5c0.4,0,0.8-0.2,1-0.6
	c0.2-0.4,0.5-1.4,0.9-3.1c0.2-0.8,0.2-1.4,0.1-1.8C71.8,41.5,71.6,41.4,71.2,41.4L71.2,41.4z M76.6,35.9l-2.7,13.3h-3l0.2-1.1
	c-0.4,0.5-0.9,0.8-1.4,1c-0.5,0.2-1,0.4-1.6,0.4c-0.5,0-0.9-0.1-1.2-0.2c-0.4-0.1-0.6-0.3-0.8-0.6c-0.2-0.3-0.4-0.7-0.4-1.3
	c0-0.5,0.1-1.5,0.4-2.9c0.5-2.3,1-3.8,1.6-4.5c0.6-0.7,1.5-1.1,2.6-1.1c0.5,0,0.9,0.1,1.3,0.3c0.3,0.2,0.6,0.5,0.8,0.9l0.9-4.2H76.6
	L76.6,35.9z M60.2,44.2c-0.3,1.4-0.4,2.3-0.3,2.6c0.1,0.4,0.3,0.5,0.7,0.5c0.4,0,0.7-0.2,0.9-0.5c0.2-0.3,0.5-1.2,0.8-2.7
	c0.3-1.4,0.4-2.3,0.3-2.7c-0.1-0.3-0.3-0.5-0.7-0.5c-0.4,0-0.7,0.2-0.9,0.5C60.8,41.9,60.5,42.8,60.2,44.2L60.2,44.2z M56.9,44.2
	c0.4-2,1-3.3,1.8-4.1c0.8-0.8,2-1.2,3.6-1.2s2.7,0.4,3.2,1.2c0.5,0.8,0.6,2.2,0.2,4.1c-0.4,2-1,3.3-1.8,4.1c-0.8,0.8-2,1.2-3.6,1.2
	c-1.6,0-2.7-0.4-3.2-1.2C56.5,47.5,56.5,46.2,56.9,44.2L56.9,44.2z M51.3,47.1c0.4,0,0.8-0.2,1-0.6s0.5-1.4,0.8-2.9
	c0.2-0.9,0.2-1.5,0.1-1.9c-0.1-0.3-0.3-0.5-0.7-0.5c-0.4,0-0.8,0.2-1,0.6c-0.2,0.4-0.5,1.4-0.9,3.1c-0.2,0.8-0.2,1.4-0.1,1.8
	C50.7,47,50.9,47.1,51.3,47.1L51.3,47.1z M45.9,52.6l2.7-13.4h3l-0.2,1.1c0.4-0.5,0.8-0.8,1.3-1c0.5-0.2,1-0.3,1.6-0.3
	c0.5,0,0.9,0.1,1.2,0.2c0.4,0.1,0.6,0.3,0.8,0.6c0.2,0.3,0.4,0.7,0.4,1.3c0,0.5-0.1,1.5-0.4,2.9c-0.5,2.3-1,3.8-1.6,4.5
	c-0.6,0.7-1.5,1.1-2.6,1.1c-0.5,0-0.9-0.1-1.3-0.3c-0.3-0.2-0.6-0.5-0.9-0.9l-0.9,4.3H45.9L45.9,52.6z M44.2,38.2l0.5-2.4h3.4
	l-0.5,2.4H44.2L44.2,38.2z M41.8,49.2l2.1-10h3.4l-2.1,10H41.8L41.8,49.2z M34.9,49.2l2.1-10h3.2l-0.2,1.1c0.8-1.2,2-1.5,3.3-1.5
	l-0.6,3c-2.2-0.1-2.8,0.3-3.1,2.1l-1.2,5.4H34.9L34.9,49.2z"/>
</svg>
