<?xml version="1.0" encoding="utf-8"?>
<!-- Generator: Adobe Illustrator 27.1.1, SVG Export Plug-In . SVG Version: 6.00 Build 0)  -->
<svg version="1.1" id="Layer_1" xmlns="http://www.w3.org/2000/svg" xmlns:xlink="http://www.w3.org/1999/xlink" x="0px" y="0px"
	 viewBox="0 0 592 528" style="enable-background:new 0 0 592 528;" xml:space="preserve">
<path d="M488.5,18.3L267.1,166c-29.1,19.4-47.6,50.9-50.6,85.3c62.3,12.8,111.4,61.9,124.3,124.3c34.5-3,65.9-21.5,85.3-50.6
	l147.6-221.5c6.7-10.1,10.3-21.9,10.3-34.1C584,35.5,556.5,8,522.6,8C510.5,8,498.6,11.6,488.5,18.3z M296,408
	c0-61.9-50.1-112-112-112S72,346.1,72,408c0,3.9,0.2,7.8,0.6,11.6c1.8,17.5-10.2,36.4-27.8,36.4H40c-17.7,0-32,14.3-32,32
	s14.3,32,32,32h144C245.9,520,296,469.9,296,408z"/>
</svg>
