<?xml version="1.0" encoding="UTF-8"?><svg id="Layer_2" xmlns="http://www.w3.org/2000/svg" viewBox="0 0 24 24"><g id="Layer_1-2"><path id="Puffy_Star" d="m17.97,24c-.38,0-.75-.1-1.09-.28l-4.87-2.67-4.87,2.67c-.34.19-.72.28-1.09.28-.69,0-1.35-.32-1.8-.88-.44-.55-.63-1.27-.51-1.98l.93-5.65L.71,11.49c-.64-.65-.87-1.61-.59-2.5s1-1.53,1.89-1.66l5.45-.82,2.44-5.14c.4-.84,1.2-1.36,2.1-1.36s1.71.52,2.1,1.36l2.44,5.14,5.45.82c.89.13,1.62.77,1.89,1.66.28.89.05,1.85-.59,2.5l-3.94,4,.93,5.65c.12.71-.07,1.44-.51,1.98-.45.56-1.11.88-1.8.88Z"/></g></svg>